<svg xmlns="http://www.w3.org/2000/svg" xmlns:xlink="http://www.w3.org/1999/xlink" width="545.708" height="423.791" viewBox="0 0 545.708 423.791">
  <defs>
    <linearGradient id="linear-gradient" x1="0.5" x2="-0.06" y2="0.698" gradientUnits="objectBoundingBox">
      <stop offset="0" stop-color="#1b1145"/>
      <stop offset="1"/>
    </linearGradient>
    <linearGradient id="linear-gradient-2" x1="0.868" x2="0.5" y2="1" gradientUnits="objectBoundingBox">
      <stop offset="0" stop-color="#1b1145"/>
      <stop offset="1" stop-color="#05030e"/>
    </linearGradient>
  </defs>
  <g id="Group_7" data-name="Group 7" transform="translate(-395 -177.124)">
    <path id="Path_21" data-name="Path 21" d="M207.439,424.08H195.495V388.908a7.044,7.044,0,0,0-7.044-7.044h-2.8a7.044,7.044,0,0,0-7.044,7.044V424.08h-33.69a4.021,4.021,0,0,1-3.555-5.9l35.657-67.488a7.044,7.044,0,0,0-3.22-9.66l-2.1-.994a7.044,7.044,0,0,0-9.22,3.049l-43.489,81.354a9.551,9.551,0,0,0-1.128,4.5h0a9.551,9.551,0,0,0,9.551,9.551h51.2v22.241a8.443,8.443,0,0,0,8.443,8.443h0a8.443,8.443,0,0,0,8.443-8.443V438.495h11.944a7.208,7.208,0,0,0,7.208-7.208h0a7.208,7.208,0,0,0-7.208-7.208Z" transform="translate(403.563 -153.168)" fill="#6812bf"/>
    <g id="undraw_not_found_60pq" transform="translate(395 222.086)">
      <circle id="Ellipse_2" data-name="Ellipse 2" cx="31.167" cy="31.167" r="31.167" transform="translate(72.361 18.992)" fill="#ff6584"/>
      <path id="Path_8" data-name="Path 8" d="M357.943,228.136c0,73.539-43.718,99.217-97.647,99.217s-97.647-25.677-97.647-99.217S260.3,61.042,260.3,61.042,357.943,154.6,357.943,228.136Z" transform="translate(-102.777 -61.042)" fill="url(#linear-gradient)"/>
      <path id="Path_9" data-name="Path 9" d="M274.811,255.061l1-61.546,41.619-76.141L275.968,183.86l.449-27.674L305.1,101.1l-28.565,47.764h0l.808-49.772,30.716-43.856-30.588,36.03L277.978,0,274.8,120.818l.261-4.984-31.229-47.8L274.563,125.4l-2.91,55.587-.087-1.475-36-50.3,35.892,55.515-.364,6.952-.065.1.03.571-7.382,141.029h9.863l1.183-72.844,35.8-55.379Z" transform="translate(-120.85)" fill="#3f3d56"/>
      <path id="Path_10" data-name="Path 10" d="M991.894,321.926c0,60.2-35.785,81.214-79.929,81.214s-79.929-21.018-79.929-81.214,79.927-136.774,79.927-136.774S991.894,261.731,991.894,321.926Z" transform="translate(-446.186 -124.713)" fill="url(#linear-gradient-2)"/>
      <path id="Path_11" data-name="Path 11" d="M916.639,332.89l.818-50.378,34.068-62.325-33.94,54.422.368-22.652,23.481-45.092-23.384,39.1h0l.662-40.741,25.142-35.9-25.039,29.492.414-74.7L916.632,223l.214-4.079L891.283,179.8l25.153,46.959-2.382,45.5-.071-1.208-29.469-41.176,29.38,45.442-.3,5.69-.053.086.024.467L907.524,397H915.6l.969-59.626,29.305-45.331Z" transform="translate(-453.773 -63.671)" fill="#3f3d56"/>
      <ellipse id="Ellipse_3" data-name="Ellipse 3" cx="270.075" cy="13.652" rx="270.075" ry="13.652" transform="translate(0 317.728)" fill="#1b1145"/>
      <ellipse id="Ellipse_4" data-name="Ellipse 4" cx="46.258" cy="2.338" rx="46.258" ry="2.338" transform="translate(388.345 351.597)" fill="#1b1145"/>
      <ellipse id="Ellipse_5" data-name="Ellipse 5" cx="46.258" cy="2.338" rx="46.258" ry="2.338" transform="translate(220.958 374.153)" fill="#1b1145"/>
      <ellipse id="Ellipse_6" data-name="Ellipse 6" cx="105.682" cy="5.342" rx="105.682" ry="5.342" transform="translate(34.542 352.237)" fill="#1b1145"/>
      <circle id="Ellipse_7" data-name="Ellipse 7" cx="38.471" cy="38.471" r="38.471" transform="translate(8.806 237.291)" fill="#2f2e41"/>
      <rect id="Rectangle_73" data-name="Rectangle 73" width="11.688" height="20.94" transform="translate(29.393 305.746) rotate(0.675)" fill="#2f2e41"/>
      <rect id="Rectangle_74" data-name="Rectangle 74" width="11.688" height="20.94" transform="translate(52.766 306.021) rotate(0.675)" fill="#2f2e41"/>
      <ellipse id="Ellipse_8" data-name="Ellipse 8" cx="3.652" cy="9.74" rx="3.652" ry="9.74" transform="translate(29.099 330.58) rotate(-89.325)" fill="#2f2e41"/>
      <ellipse id="Ellipse_9" data-name="Ellipse 9" cx="3.652" cy="9.74" rx="3.652" ry="9.74" transform="translate(52.478 330.368) rotate(-89.325)" fill="#2f2e41"/>
      <circle id="Ellipse_10" data-name="Ellipse 10" cx="13.148" cy="13.148" r="13.148" transform="translate(35.218 252.886)" fill="#fff"/>
      <circle id="Ellipse_11" data-name="Ellipse 11" cx="4.383" cy="4.383" r="4.383" transform="translate(43.984 261.652)" fill="#3f3d56"/>
      <path id="Path_12" data-name="Path 12" d="M60.489,519.429c-2.942-13.948,7.153-27.887,22.547-31.134s30.26,5.426,33.2,19.374-7.294,18.958-22.689,22.206S63.431,533.377,60.489,519.429Z" transform="translate(-50.105 -279.882)" fill="#905ef7"/>
      <path id="Path_13" data-name="Path 13" d="M182.262,607.185c0,26.821-15.944,36.186-35.613,36.186q-.683,0-1.365-.015c-.911-.019-1.814-.063-2.706-.124-17.751-1.256-31.542-11.1-31.542-36.047,0-25.814,32.987-58.387,35.465-60.8l0,0,.143-.139S182.262,580.364,182.262,607.185Z" transform="translate(-76.299 -309.96)" fill="#905ef7"/>
      <path id="Path_14" data-name="Path 14" d="M166.422,639.267l13.025-18.2-13.058,20.2-.035,2.089c-.911-.02-1.814-.063-2.706-.124l1.4-26.834-.011-.208.024-.039.132-2.534-13.09-20.248,13.132,18.348.03.538,1.061-20.275-11.207-20.923,11.344,17.365,1.1-42.033,0-.143v.139l-.184,33.146,11.157-13.14-11.2,16-.3,18.153,10.417-17.421-10.461,20.092-.165,10.092,15.123-24.247-15.18,27.769Z" transform="translate(-97.369 -309.96)" fill="#3f3d56"/>
      <circle id="Ellipse_12" data-name="Ellipse 12" cx="38.471" cy="38.471" r="38.471" transform="translate(308.495 236.874)" fill="#2f2e41"/>
      <rect id="Rectangle_75" data-name="Rectangle 75" width="11.688" height="20.94" transform="matrix(0.956, -0.294, 0.294, 0.956, 339.077, 309.359)" fill="#2f2e41"/>
      <rect id="Rectangle_76" data-name="Rectangle 76" width="11.688" height="20.94" transform="matrix(0.956, -0.294, 0.294, 0.956, 361.421, 302.492)" fill="#2f2e41"/>
      <ellipse id="Ellipse_13" data-name="Ellipse 13" cx="9.74" cy="3.652" rx="9.74" ry="3.652" transform="matrix(0.956, -0.294, 0.294, 0.956, 344.227, 326.117)" fill="#2f2e41"/>
      <ellipse id="Ellipse_14" data-name="Ellipse 14" cx="9.74" cy="3.652" rx="9.74" ry="3.652" transform="matrix(0.956, -0.294, 0.294, 0.956, 366.428, 318.784)" fill="#2f2e41"/>
      <circle id="Ellipse_15" data-name="Ellipse 15" cx="13.148" cy="13.148" r="13.148" transform="translate(331.888 252.601)" fill="#fff"/>
      <circle id="Ellipse_16" data-name="Ellipse 16" cx="4.383" cy="4.383" r="4.383" transform="translate(340.653 261.367)" fill="#3f3d56"/>
      <path id="Path_15" data-name="Path 15" d="M654.08,535.975c-7.056-12.385-1.694-28.74,11.977-36.528s30.473-4.062,37.529,8.324-1.164,20.28-14.835,28.068S661.136,548.361,654.08,535.975Z" transform="translate(-353.296 -283.865)" fill="#905ef7"/>
      <path id="Path_16" data-name="Path 16" d="M542.418,602.367c0,24.62-14.636,33.217-32.691,33.217q-.627,0-1.253-.014c-.837-.018-1.665-.058-2.484-.114-16.295-1.153-28.954-10.192-28.954-33.089,0-23.7,30.281-53.6,32.556-55.809l0,0,.132-.128S542.418,577.747,542.418,602.367Z" transform="translate(-264.064 -310.054)" fill="#905ef7"/>
      <path id="Path_17" data-name="Path 17" d="M527.878,631.817l11.957-16.707-11.986,18.541-.032,1.918c-.837-.018-1.665-.058-2.484-.114l1.289-24.632-.01-.191.022-.036.122-2.326-12.016-18.587,12.054,16.842.028.494.974-18.611L517.506,569.2l10.413,15.94,1.014-38.585,0-.131v.127l-.169,30.426,10.242-12.062L528.726,579.6l-.271,16.663,9.563-15.992-9.6,18.444-.151,9.264,13.883-22.258-13.934,25.491Z" transform="translate(-283.406 -310.053)" fill="#3f3d56"/>
      <path id="Path_18" data-name="Path 18" d="M800.262,618.185c0,26.821-15.944,36.186-35.613,36.186q-.683,0-1.365-.015c-.911-.019-1.814-.063-2.706-.124-17.751-1.256-31.542-11.1-31.542-36.047,0-25.814,32.987-58.387,35.465-60.8l0,0,.143-.139S800.262,591.364,800.262,618.185Z" transform="translate(-393.345 -315.603)" fill="#905ef7"/>
      <path id="Path_19" data-name="Path 19" d="M784.422,650.267l13.025-18.2-13.058,20.2-.035,2.089c-.911-.02-1.814-.063-2.706-.124l1.4-26.834-.011-.208.024-.039.132-2.534-13.091-20.248,13.132,18.348.03.538,1.061-20.275-11.207-20.923,11.344,17.365,1.1-42.033,0-.143v.139l-.184,33.146,11.157-13.14-11.2,16-.3,18.153,10.417-17.422-10.461,20.092-.165,10.092,15.123-24.247-15.18,27.769Z" transform="translate(-414.416 -315.604)" fill="#3f3d56"/>
      <ellipse id="Ellipse_17" data-name="Ellipse 17" cx="6.039" cy="19.236" rx="6.039" ry="19.236" transform="translate(312.063 287.346) rotate(-64.626)" fill="#2f2e41"/>
      <ellipse id="Ellipse_18" data-name="Ellipse 18" cx="6.039" cy="19.236" rx="6.039" ry="19.236" transform="translate(15.358 286.145) rotate(-68.159)" fill="#2f2e41"/>
    </g>
    <path id="Path_23" data-name="Path 23" d="M217.242,411.827H205.3V376.655a7.044,7.044,0,0,0-7.044-7.044h-2.8a7.044,7.044,0,0,0-7.044,7.044v35.172h-33.69a4.021,4.021,0,0,1-3.555-5.9l35.657-67.488a7.044,7.044,0,0,0-3.22-9.66l-2.1-.994a7.044,7.044,0,0,0-9.22,3.049l-43.489,81.354a9.552,9.552,0,0,0-1.128,4.5h0a9.551,9.551,0,0,0,9.551,9.551h51.2v22.241a8.443,8.443,0,0,0,8.443,8.443h0a8.443,8.443,0,0,0,8.443-8.443V426.242h11.944a7.208,7.208,0,0,0,7.208-7.208h0a7.208,7.208,0,0,0-7.207-7.208Z" transform="translate(397.055 -145.033)" fill="none" stroke="#3f3d56" stroke-miterlimit="10" stroke-width="1"/>
    <path id="Path_20" data-name="Path 20" d="M485.459,324.894c-28.888,0-49.63,18.534-49.63,61.78,0,49.012,20.741,61.986,49.63,61.986s50.865-14.209,50.865-61.986C536.324,335.6,514.347,324.894,485.459,324.894Zm.19,107.5c-20.009,0-30.462-11.739-30.462-45.685,0-29.953,10.881-45.749,30.89-45.749s30.89,10.375,30.89,45.749c0,33.091-11.309,45.686-31.318,45.686Z" transform="translate(192.471 -143.563)" fill="#2f2e41"/>
    <path id="Path_22" data-name="Path 22" d="M865.435,424.08H853.491V388.908a7.044,7.044,0,0,0-7.043-7.044h-2.8a7.044,7.044,0,0,0-7.044,7.044V424.08h-33.69a4.021,4.021,0,0,1-3.555-5.9l35.657-67.488a7.044,7.044,0,0,0-3.22-9.66l-2.1-.994a7.044,7.044,0,0,0-9.22,3.049l-43.489,81.354a9.552,9.552,0,0,0-1.128,4.5h0a9.551,9.551,0,0,0,9.551,9.551h51.2v22.241a8.443,8.443,0,0,0,8.443,8.443h0a8.443,8.443,0,0,0,8.443-8.443V438.495h11.944a7.208,7.208,0,0,0,7.208-7.208h0A7.208,7.208,0,0,0,865.435,424.08Z" transform="translate(-33.262 -153.168)" fill="#6812bf"/>
    <path id="Path_24" data-name="Path 24" d="M883.814,411.827H871.87V376.655a7.044,7.044,0,0,0-7.044-7.044h-2.8a7.044,7.044,0,0,0-7.044,7.044v35.172h-33.69a4.021,4.021,0,0,1-3.555-5.9L853.4,338.439a7.044,7.044,0,0,0-3.22-9.66l-2.1-.994a7.044,7.044,0,0,0-9.22,3.049l-43.489,81.354a9.552,9.552,0,0,0-1.128,4.5h0a9.551,9.551,0,0,0,9.551,9.551h51.2v22.241a8.443,8.443,0,0,0,8.443,8.443h0a8.443,8.443,0,0,0,8.443-8.443V426.242h11.944a7.208,7.208,0,0,0,7.208-7.208h0a7.208,7.208,0,0,0-7.208-7.208Z" transform="translate(-45.464 -145.033)" fill="none" stroke="#3f3d56" stroke-miterlimit="10" stroke-width="1"/>
    <path id="Path_25" data-name="Path 25" d="M505.064,313.866c-28.888,0-49.63,18.534-49.63,61.78,0,49.012,20.741,61.986,49.63,61.986s50.865-14.209,50.865-61.986C555.929,324.575,533.952,313.866,505.064,313.866Zm.19,107.5c-20.009,0-30.462-11.739-30.462-45.685,0-29.953,10.881-45.749,30.89-45.749s30.89,10.376,30.89,45.749c0,33.091-11.309,45.686-31.318,45.686Z" transform="translate(179.456 -136.242)" fill="none" stroke="#3f3d56" stroke-miterlimit="10" stroke-width="1"/>
    <path id="Path_27" data-name="Path 27" d="M602.945,333.435a4.516,4.516,0,0,1-2.635,2.534,23.28,23.28,0,0,1-8.995,1.766,15.183,15.183,0,0,1-2.4-.044A6.9,6.9,0,0,1,584.8,335.8a.565.565,0,0,1,.015-.956c1.67-1.835,4.458-2.96,7.266-3.77,2.129-.614,5.842-2.205,8.165-1.991C602.49,329.289,603.274,332.079,602.945,333.435Z" transform="translate(93.747 -146.329)" fill="#3f3d56"/>
    <path id="Path_28" data-name="Path 28" d="M602.945,333.435a4.516,4.516,0,0,1-2.635,2.534,23.28,23.28,0,0,1-8.995,1.766,15.183,15.183,0,0,1-2.4-.044A6.9,6.9,0,0,1,584.8,335.8a.565.565,0,0,1,.015-.956c1.67-1.835,4.458-2.96,7.266-3.77,2.129-.614,5.842-2.205,8.165-1.991C602.49,329.289,603.274,332.079,602.945,333.435Z" transform="translate(93.747 -146.329)" opacity="0.1"/>
    <path id="Path_41" data-name="Path 41" d="M1060.819,550.631a7,7,0,1,0,.932-13.417l.175,3.6-1.7-3.086a6.969,6.969,0,0,0-3.591,3.94,6.857,6.857,0,0,0-.4,1.892,6.994,6.994,0,0,0,4.59,7.069Z" transform="translate(-219.383 -284.414)" fill="#57b894"/>
    <path id="Path_42" data-name="Path 42" d="M1092.4,580.518c-.6-3.062,2-5.777,4.578-7.542s5.581-3.5,6.46-6.493c1.262-4.3-2.5-8.245-5.424-11.644a42.117,42.117,0,0,1-5.554-8.254,11.366,11.366,0,0,1-1.328-3.753,12.954,12.954,0,0,1,1-5.626q3.086-9.093,6.6-18.033" transform="translate(-242.531 -272.539)" fill="none" stroke="#3f3d56" stroke-miterlimit="10" stroke-width="1"/>
    <path id="Path_43" data-name="Path 43" d="M1061.669,547.873a7,7,0,1,0,.932-13.417l.175,3.6-1.7-3.086a6.969,6.969,0,0,0-3.591,3.94,6.858,6.858,0,0,0-.4,1.892A7,7,0,0,0,1061.669,547.873Z" transform="translate(-219.947 -282.583)" fill="none" stroke="#3f3d56" stroke-miterlimit="10" stroke-width="1"/>
    <path id="Path_44" data-name="Path 44" d="M1091.62,506.372a6.987,6.987,0,0,1,5.035-4.436l.576,3.423,1.068-3.6a6.995,6.995,0,1,1-6.679,4.608Z" transform="translate(-242.611 -260.981)" fill="#57b894"/>
    <path id="Path_45" data-name="Path 45" d="M1092.76,502.694a6.988,6.988,0,0,1,5.035-4.436l.576,3.423,1.068-3.6a6.995,6.995,0,1,1-6.679,4.608Z" transform="translate(-243.368 -258.54)" fill="none" stroke="#3f3d56" stroke-miterlimit="10" stroke-width="1"/>
    <path id="Path_46" data-name="Path 46" d="M1098.932,598.682a6.995,6.995,0,0,0,6.191-12.444L1104.3,589l-.582-3.463-.018-.007a7,7,0,1,0-4.771,13.152Z" transform="translate(-244.682 -316.312)" fill="#57b894"/>
    <path id="Path_47" data-name="Path 47" d="M1099.932,594.956a6.995,6.995,0,0,0,6.191-12.444l-.821,2.763-.582-3.463-.018-.007a7,7,0,1,0-4.771,13.152Z" transform="translate(-245.346 -313.839)" fill="none" stroke="#3f3d56" stroke-miterlimit="10" stroke-width="1"/>
    <path id="Path_48" data-name="Path 48" d="M1086.168,643.85a6.992,6.992,0,1,0,1.348-5.478l3.117,4.691-4.259-2.49A6.928,6.928,0,0,0,1086.168,643.85Z" transform="translate(-239.199 -349.863)" fill="#57b894"/>
    <path id="Path_49" data-name="Path 49" d="M1087.018,641.093a6.992,6.992,0,1,0,1.348-5.478l3.117,4.691-4.259-2.49A6.929,6.929,0,0,0,1087.018,641.093Z" transform="translate(-239.763 -348.033)" fill="none" stroke="#3f3d56" stroke-miterlimit="10" stroke-width="1"/>
    <path id="Path_50" data-name="Path 50" d="M66.082,610.523a4.6,4.6,0,1,0,.612-8.815l.115,2.366-1.119-2.027a4.579,4.579,0,0,0-2.359,2.589,4.507,4.507,0,0,0-.264,1.243A4.6,4.6,0,0,0,66.082,610.523Z" transform="translate(439.945 -327.264)" fill="#57b894"/>
    <path id="Path_51" data-name="Path 51" d="M86.828,630.159c-.4-2.012,1.317-3.8,3.008-4.955s3.667-2.3,4.244-4.266c.829-2.828-1.641-5.417-3.563-7.65a27.669,27.669,0,0,1-3.649-5.423,7.465,7.465,0,0,1-.873-2.466,8.511,8.511,0,0,1,.657-3.7q2.027-5.974,4.335-11.848" transform="translate(424.738 -319.462)" fill="none" stroke="#3f3d56" stroke-miterlimit="10" stroke-width="1"/>
    <path id="Path_52" data-name="Path 52" d="M66.645,608.711a4.6,4.6,0,1,0,.612-8.815l.115,2.366-1.119-2.027a4.579,4.579,0,0,0-2.359,2.589,4.506,4.506,0,0,0-.264,1.243A4.6,4.6,0,0,0,66.645,608.711Z" transform="translate(439.572 -326.062)" fill="none" stroke="#3f3d56" stroke-miterlimit="10" stroke-width="1"/>
    <path id="Path_53" data-name="Path 53" d="M86.321,581.443a4.591,4.591,0,0,1,3.308-2.915l.378,2.249.7-2.362a4.6,4.6,0,1,1-4.388,3.028Z" transform="translate(424.682 -311.869)" fill="#57b894"/>
    <path id="Path_54" data-name="Path 54" d="M87.073,579.028a4.591,4.591,0,0,1,3.308-2.915l.378,2.249.7-2.362a4.6,4.6,0,1,1-4.388,3.028Z" transform="translate(424.184 -310.265)" fill="none" stroke="#3f3d56" stroke-miterlimit="10" stroke-width="1"/>
    <path id="Path_55" data-name="Path 55" d="M91.127,642.093a4.6,4.6,0,0,0,4.068-8.176l-.539,1.815-.382-2.276-.012,0a4.6,4.6,0,1,0-3.135,8.641Z" transform="translate(423.32 -348.222)" fill="#57b894"/>
    <path id="Path_56" data-name="Path 56" d="M91.778,639.646a4.6,4.6,0,0,0,4.068-8.176l-.539,1.815-.382-2.276-.012,0a4.6,4.6,0,0,0-3.135,8.641Z" transform="translate(422.888 -346.597)" fill="none" stroke="#3f3d56" stroke-miterlimit="10" stroke-width="1"/>
    <path id="Path_57" data-name="Path 57" d="M82.737,671.77a4.594,4.594,0,1,0,.886-3.6l2.048,3.082-2.8-1.636a4.552,4.552,0,0,0-.135,2.153Z" transform="translate(426.926 -370.266)" fill="#57b894"/>
    <path id="Path_58" data-name="Path 58" d="M83.3,669.958a4.594,4.594,0,1,0,.886-3.6l2.048,3.082-2.8-1.636A4.553,4.553,0,0,0,83.3,669.958Z" transform="translate(426.552 -369.063)" fill="none" stroke="#3f3d56" stroke-miterlimit="10" stroke-width="1"/>
    <ellipse id="Ellipse_24" data-name="Ellipse 24" cx="5.714" cy="7.395" rx="5.714" ry="7.395" transform="translate(658.945 225.064)" fill="#2f2e41"/>
    <ellipse id="Ellipse_25" data-name="Ellipse 25" cx="5.714" cy="7.395" rx="5.714" ry="7.395" transform="translate(690.037 225.232)" fill="#2f2e41"/>
    <path id="Path_59" data-name="Path 59" d="M582.34,530.55c0,3.341-4.665,6.05-10.42,6.05s-10.42-2.709-10.42-6.05c0-2.894,3.5-5.314,8.175-5.906a16.833,16.833,0,0,1,2.245-.145,17.038,17.038,0,0,1,3.741.4C579.567,525.774,582.34,527.975,582.34,530.55Z" transform="translate(109.042 -276.075)" fill="#2f2e41"/>
    <ellipse id="Ellipse_26" data-name="Ellipse 26" cx="5.714" cy="7.395" rx="5.714" ry="7.395" transform="translate(660.29 223.383)" fill="none" stroke="#3f3d56" stroke-miterlimit="10" stroke-width="1"/>
    <ellipse id="Ellipse_27" data-name="Ellipse 27" cx="5.714" cy="7.395" rx="5.714" ry="7.395" transform="translate(691.382 223.551)" fill="none" stroke="#3f3d56" stroke-miterlimit="10" stroke-width="1"/>
    <ellipse id="Ellipse_28" data-name="Ellipse 28" cx="10.42" cy="6.05" rx="10.42" ry="6.05" transform="translate(671.886 246.744)" fill="none" stroke="#3f3d56" stroke-miterlimit="10" stroke-width="1"/>
    <path id="Path_60" data-name="Path 60" d="M591.385,525.075a1.659,1.659,0,0,1-.444,1.14,1.458,1.458,0,0,1-1.069.473h-3.361A1.568,1.568,0,0,1,585,525.075a1.65,1.65,0,0,1,.276-.921A15.827,15.827,0,0,1,587.52,524a16.019,16.019,0,0,1,3.741.43A1.7,1.7,0,0,1,591.385,525.075Z" transform="translate(93.442 -275.743)" fill="#fff"/>
    <circle id="Ellipse_29" data-name="Ellipse 29" cx="1.681" cy="1.681" r="1.681" transform="translate(664.323 227.081)" fill="#fff"/>
    <circle id="Ellipse_30" data-name="Ellipse 30" cx="1.681" cy="1.681" r="1.681" transform="translate(695.583 227.081)" fill="#fff"/>
    <circle id="Ellipse_31" data-name="Ellipse 31" cx="1.681" cy="1.681" r="1.681" transform="translate(697.264 242.878)" fill="#905ef7" opacity="0.3"/>
    <circle id="Ellipse_32" data-name="Ellipse 32" cx="1.681" cy="1.681" r="1.681" transform="translate(656.256 242.878)" fill="#905ef7" opacity="0.3"/>
  </g>
</svg>
